<?xml version="1.0" standalone="no"?>
<!DOCTYPE svg PUBLIC "-//W3C//DTD SVG 20010904//EN"
 "http://www.w3.org/TR/2001/REC-SVG-20010904/DTD/svg10.dtd">
<svg version="1.0" xmlns="http://www.w3.org/2000/svg"
 width="230.000000pt" height="230.000000pt" viewBox="0 0 230.000000 230.000000"
 preserveAspectRatio="xMidYMid meet">
<metadata>
Created by potrace 1.14, written by Peter Selinger 2001-2017
</metadata>
<g transform="translate(0.000000,230.000000) scale(0.100000,-0.100000)"
fill="#000000" stroke="none">
<path d="M745 1986 c-125 -40 -210 -136 -230 -263 l-7 -42 -65 4 c-74 3 -149
-12 -209 -43 -136 -70 -176 -252 -86 -385 l31 -46 -32 -22 c-123 -85 -171
-193 -133 -301 33 -92 139 -166 243 -170 l34 -1 -7 -41 c-12 -68 -11 -89 3
-132 29 -87 111 -137 220 -135 53 0 132 28 164 57 14 13 19 9 53 -45 96 -157
229 -159 339 -7 13 18 16 18 78 -12 35 -17 81 -33 103 -35 75 -10 143 32 178
110 l19 42 57 -34 c89 -54 172 -78 251 -73 128 9 200 77 231 221 l13 57 61 0
c102 1 179 48 217 134 38 86 16 181 -63 271 -22 25 -36 45 -31 45 16 0 85 74
105 114 25 49 20 122 -12 166 -26 37 -93 83 -142 99 -43 14 -45 17 -52 55 -27
150 -137 268 -306 327 -53 19 -86 23 -180 23 -146 0 -210 -22 -286 -98 l-51
-51 -69 71 c-125 128 -301 184 -439 140z m180 -112 c136 -41 223 -137 319
-352 73 -165 75 -168 76 -107 3 171 12 251 33 287 21 38 78 85 113 93 10 2 33
8 49 13 32 9 116 8 171 -3 100 -18 209 -97 248 -178 10 -21 20 -72 23 -112 6
-78 11 -84 68 -85 34 0 123 -47 140 -74 35 -52 -23 -116 -155 -172 -49 -21
-90 -41 -90 -44 0 -4 31 -21 69 -39 148 -69 208 -163 161 -251 -28 -51 -117
-58 -221 -16 l-57 23 -4 -106 c-6 -190 -62 -252 -195 -218 -61 16 -177 88
-253 156 -30 27 -56 48 -58 47 -3 -4 -7 -22 -17 -86 -16 -102 -48 -170 -81
-170 -28 0 -102 40 -167 90 l-52 39 -17 -22 c-10 -12 -18 -25 -18 -30 0 -15
-55 -93 -85 -119 -23 -20 -33 -24 -47 -17 -28 15 -69 86 -113 198 -22 56 -42
101 -45 101 -3 0 -23 -30 -45 -66 -51 -84 -96 -118 -167 -131 -36 -6 -95 23
-104 50 -22 69 4 123 138 282 77 92 137 165 142 174 4 5 -65 -32 -153 -84 -93
-55 -180 -100 -208 -106 -130 -30 -240 78 -183 180 28 48 81 83 191 122 l88
32 -69 49 c-93 65 -124 112 -125 189 0 66 20 101 76 134 49 29 188 28 282 -2
l69 -22 -8 52 c-17 120 -11 166 31 226 50 73 152 104 250 75z"/>
</g>
</svg>
